<?xml version="1.0" encoding="UTF-8"?>
<!-- Generator: visioncortex VTracer 0.6.3 -->
<svg version="1.1" xmlns="http://www.w3.org/2000/svg" width="1280" height="1280">
<path d="M0 0 C3.87 2.04 7.56 4.27 11.23 6.63 C14.41 8.67 17.65 10.38 21.06 12 C26.25 14.51 30.96 17.49 35.76 20.66 C41.28 24.28 47.02 27.21 53 30 C53 30.66 53 31.32 53 32 C53.57 32.11 54.13 32.22 54.71 32.33 C57.33 33.1 59.25 34.24 61.56 35.69 C65.06 37.84 68.57 39.88 72.19 41.81 C76.7 44.24 81.07 46.84 85.44 49.5 C91.8 53.37 98.27 56.8 105 60 C105 60.66 105 61.32 105 62 C105.57 62.11 106.13 62.22 106.71 62.33 C109.33 63.1 111.25 64.24 113.56 65.69 C117.06 67.84 120.57 69.88 124.19 71.81 C128.78 74.28 133.24 76.92 137.69 79.62 C142.69 82.66 147.69 85.51 153 88 C153 88.66 153 89.32 153 90 C153.73 90.11 154.47 90.22 155.22 90.34 C158.11 91.03 159.94 91.97 162.44 93.56 C166.47 96.07 170.55 98.47 174.69 100.81 C179.73 103.67 184.72 106.62 189.69 109.62 C194.75 112.69 199.87 115.59 205.09 118.39 C209.46 120.81 213.71 123.41 217.96 126.02 C220.63 127.64 223.03 129.01 226 130 C226 130.66 226 131.32 226 132 C227.65 132.33 229.3 132.66 231 133 C231 133.66 231 134.32 231 135 C231.56 135.11 232.12 135.22 232.7 135.34 C235.35 136.1 237.47 137.22 239.88 138.56 C240.85 139.1 241.82 139.65 242.82 140.2 C243.87 140.8 244.92 141.39 246 142 C247.64 142.92 247.64 142.92 249.3 143.86 C256.31 147.83 263.25 151.91 270.11 156.12 C272.73 157.71 275.09 159.03 278 160 C278 160.66 278 161.32 278 162 C279.65 162.33 281.3 162.66 283 163 C283 163.66 283 164.32 283 165 C283.57 165.12 284.14 165.24 284.73 165.36 C287.18 166.05 289.14 167.03 291.38 168.26 C292.21 168.72 293.05 169.17 293.9 169.64 C294.78 170.13 295.66 170.62 296.56 171.12 C297.46 171.62 298.37 172.12 299.29 172.64 C304.82 175.71 310.18 178.95 315.46 182.43 C320.12 185.31 325.06 187.65 330 190 C330 190.66 330 191.32 330 192 C330.74 192.11 331.48 192.22 332.24 192.33 C335.14 193.03 336.73 193.95 339.12 195.69 C342.51 198.04 345.93 200.12 349.56 202.06 C352.98 203.9 356.37 205.75 359.69 207.75 C360.33 208.14 360.97 208.52 361.64 208.92 C362.09 209.28 362.54 209.63 363 210 C363 210.66 363 211.32 363 212 C363.66 212 364.32 212 365 212 C367.68 216.62 368.38 219.96 368.38 225.28 C368.38 226.35 368.38 226.35 368.39 227.45 C368.4 229.84 368.39 232.23 368.38 234.63 C368.38 236.36 368.39 238.09 368.4 239.83 C368.41 244.59 368.4 249.35 368.39 254.12 C368.39 259.25 368.4 264.39 368.4 269.53 C368.42 279.59 368.41 289.66 368.41 299.72 C368.4 307.9 368.4 316.07 368.4 324.25 C368.4 325.42 368.4 326.58 368.4 327.78 C368.4 330.14 368.4 332.5 368.41 334.86 C368.41 357.03 368.4 379.19 368.39 401.36 C368.37 420.38 368.38 439.41 368.39 458.43 C368.41 480.52 368.41 502.6 368.4 524.69 C368.4 527.04 368.4 529.39 368.4 531.75 C368.4 532.91 368.4 534.06 368.4 535.26 C368.4 543.43 368.4 551.6 368.41 559.77 C368.42 569.72 368.42 579.67 368.4 589.63 C368.39 594.71 368.39 599.79 368.4 604.87 C368.41 609.52 368.4 614.16 368.39 618.81 C368.38 620.5 368.38 622.18 368.39 623.86 C368.4 626.15 368.39 628.43 368.38 630.72 C368.38 631.99 368.38 633.26 368.38 634.57 C367.97 638.31 366.88 640.76 365 644 C364.34 644 363.68 644 363 644 C363 644.66 363 645.32 363 646 C360.65 647.66 360.65 647.66 357.38 649.62 C356.51 650.15 356.51 650.15 355.63 650.68 C350.1 653.99 344.51 657.17 338.9 660.34 C336.89 661.49 334.93 662.72 333 664 C332.01 664 331.02 664 330 664 C330 664.66 330 665.32 330 666 C328.96 666.49 328.96 666.49 327.9 667 C320.01 670.83 312.56 675.18 305.07 679.74 C301.31 682.03 297.53 684.3 293.75 686.56 C293.02 687 292.3 687.45 291.55 687.9 C286.34 691 286.34 691 283 691 C283 691.66 283 692.32 283 693 C281.35 693.33 279.7 693.66 278 694 C278 694.66 278 695.32 278 696 C276.84 696.56 276.84 696.56 275.66 697.14 C270.39 699.72 265.25 702.33 260.32 705.52 C252.93 710.23 245.35 714.7 237.75 719.06 C237.08 719.45 236.42 719.83 235.73 720.22 C234 721 234 721 231 721 C231 721.66 231 722.32 231 723 C229.35 723.33 227.7 723.66 226 724 C226 724.66 226 725.32 226 726 C224.94 726.49 224.94 726.49 223.87 727 C217.31 730.15 211.29 733.65 205.24 737.67 C200.46 740.8 195.51 743.38 190.33 745.81 C187.89 746.91 187.89 746.91 186 749 C185.01 749 184.02 749 183 749 C183 749.66 183 750.32 183 751 C181.94 751.49 181.94 751.49 180.87 752 C174.97 754.84 169.46 757.89 164 761.5 C158.78 764.95 153.49 767.88 147.83 770.59 C144.13 772.44 140.65 774.58 137.16 776.8 C135.08 777.96 133.32 778.55 131 779 C131 779.66 131 780.32 131 781 C129.89 781.53 129.89 781.53 128.76 782.07 C122.29 785.22 116.24 788.64 110.28 792.68 C108 794 108 794 105 794 C105 794.66 105 795.32 105 796 C103.84 796.56 103.84 796.56 102.66 797.14 C97.39 799.72 92.25 802.33 87.32 805.52 C79.93 810.23 72.35 814.7 64.75 819.06 C64.08 819.45 63.42 819.83 62.73 820.22 C61 821 61 821 58 821 C58 821.66 58 822.32 58 823 C56.35 823.33 54.7 823.66 53 824 C53 824.66 53 825.32 53 826 C51.86 826.55 51.86 826.55 50.69 827.1 C45.01 829.87 39.68 832.75 34.49 836.36 C30.21 839.18 25.71 841.65 21.23 844.17 C19.22 845.31 17.22 846.49 15.27 847.74 C13 849 13 849 10 849 C10 849.66 10 850.32 10 851 C4.54 854.25 -0.66 857.05 -7.14 856.77 C-12.56 855.31 -17.12 852.12 -21.78 849.07 C-24.84 846.92 -24.84 846.92 -28 846 C-28 845.34 -28 844.68 -28 844 C-28.73 843.89 -29.47 843.78 -30.22 843.66 C-33.11 842.97 -34.94 842.03 -37.44 840.44 C-41.58 837.87 -45.76 835.4 -50 833 C-56.55 829.28 -63.02 825.43 -69.45 821.51 C-73.61 818.99 -77.78 816.55 -82.06 814.25 C-91.67 809.06 -101.04 803.41 -110.38 797.75 C-114.53 795.25 -118.77 792.93 -123.03 790.62 C-132.2 785.61 -141.21 780.34 -150.11 774.88 C-152.73 773.29 -155.09 771.97 -158 771 C-158 770.34 -158 769.68 -158 769 C-158.57 768.89 -159.13 768.78 -159.71 768.67 C-162.33 767.9 -164.25 766.76 -166.56 765.31 C-170.06 763.16 -173.57 761.12 -177.19 759.19 C-181.7 756.76 -186.07 754.16 -190.44 751.5 C-196.8 747.63 -203.27 744.2 -210 741 C-210 740.34 -210 739.68 -210 739 C-210.57 738.89 -211.13 738.78 -211.71 738.67 C-214.33 737.9 -216.25 736.76 -218.56 735.31 C-222.06 733.16 -225.57 731.12 -229.19 729.19 C-234.56 726.3 -239.77 723.17 -244.96 719.98 C-247.62 718.36 -250.03 716.99 -253 716 C-253 715.34 -253 714.68 -253 714 C-253.73 713.89 -254.47 713.78 -255.22 713.66 C-258.11 712.97 -259.94 712.03 -262.44 710.44 C-266.58 707.87 -270.76 705.4 -275 703 C-281.55 699.28 -288.02 695.43 -294.45 691.51 C-298.65 688.96 -302.86 686.51 -307.19 684.19 C-312.43 681.36 -317.52 678.33 -322.61 675.25 C-328.11 671.91 -333.67 668.71 -339.31 665.62 C-342.54 663.84 -345.72 661.98 -348.88 660.06 C-352.41 657.92 -355.99 655.9 -359.62 653.94 C-363.02 652.1 -366.38 650.24 -369.69 648.25 C-370.33 647.86 -370.97 647.48 -371.64 647.08 C-372.09 646.72 -372.54 646.37 -373 646 C-373 645.34 -373 644.68 -373 644 C-373.66 644 -374.32 644 -375 644 C-377.68 639.38 -378.38 636.04 -378.38 630.72 C-378.38 630 -378.39 629.29 -378.39 628.55 C-378.4 626.16 -378.39 623.77 -378.38 621.37 C-378.38 619.64 -378.39 617.91 -378.4 616.17 C-378.41 611.41 -378.4 606.65 -378.39 601.88 C-378.39 596.75 -378.4 591.61 -378.4 586.47 C-378.42 576.41 -378.41 566.34 -378.41 556.28 C-378.4 548.1 -378.4 539.93 -378.4 531.75 C-378.4 530.58 -378.4 529.42 -378.4 528.22 C-378.4 525.86 -378.4 523.5 -378.41 521.14 C-378.41 498.97 -378.4 476.81 -378.39 454.64 C-378.37 435.62 -378.38 416.59 -378.39 397.57 C-378.41 375.48 -378.41 353.4 -378.4 331.31 C-378.4 328.96 -378.4 326.61 -378.4 324.25 C-378.4 323.09 -378.4 321.94 -378.4 320.74 C-378.4 312.57 -378.4 304.4 -378.41 296.23 C-378.42 286.28 -378.42 276.33 -378.4 266.37 C-378.39 261.29 -378.39 256.21 -378.4 251.13 C-378.41 246.48 -378.4 241.84 -378.39 237.19 C-378.38 235.5 -378.38 233.82 -378.39 232.14 C-378.4 229.85 -378.39 227.57 -378.38 225.28 C-378.38 224.01 -378.38 222.74 -378.38 221.43 C-377.97 217.69 -376.88 215.24 -375 212 C-374.34 212 -373.68 212 -373 212 C-373 211.34 -373 210.68 -373 210 C-371.34 208.81 -371.34 208.81 -368.94 207.44 C-365.75 205.59 -362.56 203.74 -359.42 201.82 C-352.61 197.65 -345.83 193.76 -338.59 190.39 C-335.91 189.06 -335.91 189.06 -333.52 187.01 C-330.87 184.9 -328.32 183.56 -325.25 182.12 C-320.71 179.92 -316.61 177.5 -312.47 174.63 C-305.5 170.02 -298.04 166.09 -290.69 162.12 C-285.92 159.54 -281.24 156.82 -276.56 154.06 C-275.47 153.42 -275.47 153.42 -274.36 152.76 C-271.01 150.79 -267.67 148.81 -264.35 146.8 C-263.28 146.17 -262.22 145.53 -261.12 144.88 C-260.2 144.32 -259.27 143.76 -258.32 143.18 C-256 142 -256 142 -253 142 C-253 141.34 -253 140.68 -253 140 C-251.84 139.44 -251.84 139.44 -250.66 138.86 C-245.39 136.27 -240.24 133.66 -235.31 130.48 C-227.03 125.19 -218.54 120.23 -209.88 115.59 C-206.36 113.65 -202.93 111.58 -199.5 109.5 C-194.36 106.39 -189.17 103.43 -183.88 100.59 C-180.36 98.65 -176.93 96.58 -173.5 94.5 C-169.25 91.93 -165 89.41 -160.62 87.06 C-155.87 84.51 -151.21 81.81 -146.56 79.06 C-145.84 78.63 -145.11 78.21 -144.36 77.76 C-141.01 75.79 -137.67 73.81 -134.35 71.8 C-133.28 71.17 -132.22 70.53 -131.12 69.88 C-130.2 69.32 -129.27 68.76 -128.32 68.18 C-126 67 -126 67 -123 67 C-123 66.34 -123 65.68 -123 65 C-122.24 64.64 -121.48 64.27 -120.69 63.9 C-115.01 61.13 -109.68 58.25 -104.49 54.64 C-100.21 51.82 -95.71 49.35 -91.23 46.83 C-89.22 45.69 -87.22 44.51 -85.27 43.26 C-83 42 -83 42 -80 42 C-80 41.34 -80 40.68 -80 40 C-78.87 39.45 -78.87 39.45 -77.73 38.9 C-69.83 35.02 -62.35 30.74 -54.91 26.05 C-48.66 22.14 -42.39 18.64 -35.75 15.42 C-33.25 14.13 -31 12.73 -28.69 11.12 C-8.21 -2.9 -8.21 -2.9 0 0 Z M-43.82 241.2 C-45.42 241.79 -47.05 242.31 -48.68 242.8 C-57.44 245.45 -65.04 249.58 -73 254 C-74.33 254.68 -75.66 255.35 -77 256 C-77 256.66 -77 257.32 -77 258 C-77.78 258.31 -78.57 258.62 -79.38 258.94 C-81.92 259.93 -81.92 259.93 -84 261 C-84 261.66 -84 262.32 -84 263 C-86 264 -88 265 -90 266 C-90 266.66 -90 267.32 -90 268 C-90.56 268.23 -91.11 268.47 -91.69 268.71 C-104.73 275.98 -115.8 293.31 -121.84 306.48 C-122.81 308.6 -123.87 310.48 -125.12 312.44 C-128.11 317.52 -129.4 323.37 -131 329 C-131.28 329.89 -131.56 330.77 -131.85 331.69 C-139.55 357.09 -138.25 388.63 -128 413 C-127.35 414.67 -126.71 416.33 -126.06 418 C-122.11 427.79 -116.99 436.32 -111 445 C-110.34 445.99 -109.68 446.98 -109 448 C-108.34 448 -107.68 448 -107 448 C-106.77 448.54 -106.55 449.08 -106.31 449.64 C-99.68 461.56 -87 470.07 -76 477.5 C-75.34 477.95 -74.68 478.39 -74 478.85 C-70.78 481.21 -70.78 481.21 -67 482 C-67.01 482.98 -67.01 482.98 -67.02 483.98 C-67.15 499.87 -67.25 515.76 -67.31 531.65 C-67.34 539.34 -67.38 547.02 -67.45 554.71 C-67.51 561.41 -67.55 568.11 -67.56 574.81 C-67.57 578.36 -67.59 581.9 -67.63 585.45 C-67.68 589.41 -67.68 593.38 -67.68 597.34 C-67.7 598.51 -67.72 599.68 -67.75 600.88 C-67.7 607.46 -66.9 611.44 -62.58 616.5 C-59.61 619.31 -57.65 620.25 -53.66 620.27 C-52.77 620.28 -51.88 620.29 -50.97 620.3 C-49.51 620.31 -49.51 620.31 -48.02 620.31 C-47 620.31 -45.97 620.32 -44.92 620.33 C-41.52 620.36 -38.13 620.36 -34.73 620.37 C-32.37 620.38 -30.01 620.39 -27.66 620.4 C-22.71 620.41 -17.76 620.42 -12.82 620.43 C-6.48 620.43 -0.14 620.47 6.2 620.51 C11.07 620.54 15.94 620.55 20.82 620.55 C23.15 620.56 25.49 620.57 27.83 620.59 C31.1 620.62 34.37 620.61 37.64 620.6 C38.6 620.61 39.57 620.63 40.56 620.64 C44.85 620.6 48 620.48 51.46 617.78 C55.35 613.52 57.38 610.46 57.33 604.62 C57.33 603.56 57.33 602.49 57.33 601.4 C57.31 600.24 57.29 599.08 57.27 597.89 C57.27 596.66 57.26 595.43 57.26 594.16 C57.24 591.5 57.22 588.83 57.2 586.17 C57.16 581.95 57.15 577.73 57.14 573.51 C57.13 561.51 57.09 549.51 56.98 537.51 C56.92 530.88 56.9 524.25 56.91 517.62 C56.92 514.12 56.91 510.61 56.85 507.11 C56.79 503.2 56.8 499.29 56.82 495.37 C56.77 493.64 56.77 493.64 56.73 491.87 C56.85 484.17 56.85 484.17 60.2 480.75 C62.73 478.96 65.27 477.45 68 476 C74.32 471.65 80.23 467.06 85.88 461.88 C86.41 461.38 86.95 460.89 87.5 460.39 C90.97 457.14 94.1 453.78 97 450 C97 449.34 97 448.68 97 448 C97.66 448 98.32 448 99 448 C100.59 446.05 100.59 446.05 102.12 443.62 C102.66 442.81 103.2 442 103.76 441.16 C105.17 439.13 105.17 439.13 105 437 C105.66 437 106.32 437 107 437 C107.91 435.18 108.82 433.36 109.73 431.53 C110.62 429.75 111.53 427.98 112.46 426.22 C116.04 419.32 118.82 412.46 121 405 C121.24 404.21 121.47 403.41 121.72 402.6 C123.66 395.84 124.9 389.16 125.75 382.19 C125.88 381.13 126.01 380.08 126.14 379 C127.03 371.09 127.08 363.9 126 356 C125.86 354.66 125.72 353.33 125.58 351.99 C124.74 344.09 123.35 336.6 121 329 C120.74 328 120.47 327 120.2 325.96 C116.41 312.24 109.07 300.6 101 289 C100.34 288.01 99.68 287.02 99 286 C98.34 286 97.68 286 97 286 C96.73 285.41 96.46 284.83 96.18 284.23 C84.5 262.25 54.49 247.35 31.72 240.29 C8.05 233.61 -20.48 232.57 -43.82 241.2 Z " fill="#1fcf36" transform="translate(645,212)"/>
<path d="M0 0 C3.84 1.72 7.41 3.82 11 6 C11.87 6.53 12.75 7.05 13.65 7.59 C15.31 8.6 16.97 9.6 18.63 10.61 C22.01 12.59 25.47 14.3 29 16 C29 16.66 29 17.32 29 18 C29.73 18.11 30.47 18.22 31.22 18.34 C34.11 19.03 35.94 19.97 38.44 21.56 C42.47 24.07 46.55 26.47 50.69 28.81 C55.73 31.67 60.72 34.62 65.69 37.62 C70.75 40.69 75.87 43.59 81.09 46.39 C85.46 48.81 89.71 51.41 93.96 54.02 C96.63 55.64 99.03 57.01 102 58 C102 58.66 102 59.32 102 60 C104.47 60.5 104.47 60.5 107 61 C107 61.66 107 62.32 107 63 C107.56 63.11 108.12 63.22 108.7 63.34 C111.35 64.1 113.47 65.22 115.88 66.56 C116.85 67.1 117.82 67.65 118.82 68.2 C120.39 69.09 120.39 69.09 122 70 C123.09 70.61 124.18 71.23 125.3 71.86 C131.55 75.4 137.73 79.03 143.88 82.75 C148.82 85.74 153.77 88.54 159 91 C159 91.66 159 92.32 159 93 C159.73 93.11 160.47 93.22 161.22 93.34 C164.11 94.03 165.94 94.97 168.44 96.56 C172.47 99.07 176.55 101.47 180.69 103.81 C185.73 106.67 190.72 109.62 195.69 112.62 C200.75 115.69 205.87 118.59 211.09 121.39 C215.46 123.81 219.71 126.41 223.96 129.02 C226.63 130.64 229.03 132.01 232 133 C232 133.66 232 134.32 232 135 C233.65 135.33 235.3 135.66 237 136 C237 136.66 237 137.32 237 138 C237.56 138.11 238.12 138.22 238.7 138.34 C241.35 139.1 243.47 140.22 245.88 141.56 C246.85 142.1 247.82 142.65 248.82 143.2 C249.87 143.8 250.92 144.39 252 145 C253.64 145.92 253.64 145.92 255.3 146.86 C262.31 150.83 269.25 154.91 276.11 159.12 C278.73 160.71 281.09 162.03 284 163 C284 163.66 284 164.32 284 165 C285.65 165.33 287.3 165.66 289 166 C289 166.66 289 167.32 289 168 C289.52 168.09 290.05 168.18 290.59 168.27 C293.86 169.26 296.64 170.96 299.56 172.69 C300.82 173.42 302.09 174.16 303.35 174.89 C303.97 175.25 304.59 175.61 305.24 175.99 C307.61 177.35 310.02 178.65 312.44 179.94 C317.54 182.7 322.49 185.68 327.45 188.68 C331.93 191.39 336.48 193.92 341.09 196.39 C345.46 198.81 349.71 201.41 353.96 204.02 C356.63 205.64 359.03 207.01 362 208 C362 208.66 362 209.32 362 210 C363.65 210.33 365.3 210.66 367 211 C367 211.66 367 212.32 367 213 C367.56 213.11 368.12 213.22 368.7 213.34 C371.35 214.1 373.47 215.22 375.88 216.56 C376.85 217.1 377.82 217.65 378.82 218.2 C379.87 218.8 380.92 219.39 382 220 C383.64 220.92 383.64 220.92 385.3 221.86 C392.31 225.83 399.25 229.91 406.11 234.12 C408.73 235.71 411.09 237.03 414 238 C414 238.66 414 239.32 414 240 C415.65 240.33 417.3 240.66 419 241 C419 241.66 419 242.32 419 243 C419.52 243.09 420.05 243.18 420.59 243.27 C423.86 244.26 426.64 245.96 429.56 247.69 C430.82 248.42 432.09 249.16 433.35 249.89 C433.97 250.25 434.59 250.61 435.24 250.99 C437.61 252.35 440.02 253.65 442.44 254.94 C447.72 257.79 452.85 260.88 457.96 264.02 C460.63 265.64 463.03 267.01 466 268 C466 268.66 466 269.32 466 270 C467.11 270.16 467.11 270.16 468.25 270.33 C471.14 271.03 472.68 271.94 475.06 273.69 C480.41 277.42 486.13 280.2 492 283 C492 283.66 492 284.32 492 285 C492.85 285.16 492.85 285.16 493.72 285.33 C496.32 286.09 498.21 287.23 500.5 288.69 C504.17 290.95 507.86 292.95 511.75 294.81 C517.05 297.41 521.92 300.42 526.83 303.67 C531.4 306.67 536.1 309.27 540.99 311.71 C543 313 543 313 544 316 C544.66 316 545.32 316 546 316 C549.48 321.52 549.42 326.22 549.38 332.53 C549.38 334.13 549.38 334.13 549.39 335.76 C549.4 339.35 549.39 342.93 549.38 346.52 C549.38 349.11 549.39 351.71 549.4 354.3 C549.41 359.94 549.41 365.58 549.4 371.23 C549.39 379.62 549.39 388.01 549.4 396.4 C549.42 411.39 549.42 426.37 549.41 441.36 C549.4 454.48 549.4 467.59 549.4 480.71 C549.4 481.58 549.4 482.44 549.4 483.34 C549.4 486.87 549.4 490.4 549.41 493.93 C549.41 527.04 549.41 560.16 549.39 593.27 C549.38 622.7 549.38 652.13 549.39 681.57 C549.41 714.62 549.41 747.67 549.4 780.73 C549.4 784.25 549.4 787.77 549.4 791.29 C549.4 792.6 549.4 792.6 549.4 793.92 C549.4 807.03 549.4 820.14 549.41 833.25 C549.42 848.15 549.42 863.05 549.4 877.95 C549.39 886.29 549.39 894.64 549.4 902.98 C549.41 909.2 549.4 915.43 549.39 921.65 C549.38 924.17 549.38 926.69 549.39 929.22 C549.4 932.64 549.39 936.05 549.38 939.47 C549.38 940.46 549.39 941.45 549.4 942.47 C549.36 947.76 548.9 951.39 546 956 C545.34 956 544.68 956 544 956 C543.67 956.99 543.34 957.98 543 959 C541.12 960.35 541.12 960.35 538.66 961.71 C537.76 962.21 536.86 962.72 535.94 963.24 C534.99 963.76 534.04 964.28 533.06 964.81 C531.22 965.84 529.38 966.87 527.54 967.89 C526.16 968.66 526.16 968.66 524.75 969.44 C520.45 971.88 516.23 974.44 512 977 C506.32 980.37 500.63 983.69 494.81 986.81 C489.81 989.52 484.9 992.37 480 995.25 C479.26 995.69 478.51 996.12 477.75 996.57 C474.78 998.33 471.87 1000.09 469 1002 C468.01 1002 467.02 1002 466 1002 C466 1002.66 466 1003.32 466 1004 C464.96 1004.49 464.96 1004.49 463.9 1005 C456.01 1008.83 448.56 1013.18 441.07 1017.74 C437.31 1020.03 433.53 1022.3 429.75 1024.56 C429.02 1025 428.3 1025.45 427.55 1025.9 C422.34 1029 422.34 1029 419 1029 C419 1029.66 419 1030.32 419 1031 C417.35 1031.33 415.7 1031.66 414 1032 C414 1032.66 414 1033.32 414 1034 C413.23 1034.38 412.45 1034.75 411.66 1035.14 C406.39 1037.72 401.25 1040.33 396.32 1043.52 C388.93 1048.23 381.35 1052.7 373.75 1057.06 C373.08 1057.45 372.42 1057.83 371.73 1058.22 C370 1059 370 1059 367 1059 C367 1059.66 367 1060.32 367 1061 C365.35 1061.33 363.7 1061.66 362 1062 C362 1062.66 362 1063.32 362 1064 C361.3 1064.33 360.59 1064.66 359.87 1065 C353.97 1067.84 348.46 1070.89 343 1074.5 C337.72 1077.99 332.36 1080.93 326.65 1083.68 C323.74 1085.13 321.05 1086.75 318.33 1088.52 C315.07 1090.59 311.75 1092.58 308.44 1094.56 C307.81 1094.94 307.19 1095.31 306.54 1095.7 C304.7 1096.81 302.85 1097.91 301 1099 C300.05 1099.56 300.05 1099.56 299.08 1100.14 C295.7 1102.12 292.91 1103.53 289 1104 C289 1104.66 289 1105.32 289 1106 C275.79 1113.6 275.79 1113.6 269.56 1116.94 C261.62 1121.23 253.84 1125.9 246.24 1130.77 C244 1132 244 1132 241 1132 C241 1132.66 241 1133.32 241 1134 C239.87 1134.55 239.87 1134.55 238.73 1135.1 C230.83 1138.98 223.35 1143.26 215.91 1147.95 C209.54 1151.93 203.16 1155.55 196.36 1158.77 C193.9 1159.9 193.9 1159.9 192 1162 C191.01 1162 190.02 1162 189 1162 C189 1162.66 189 1163.32 189 1164 C188.3 1164.33 187.59 1164.66 186.87 1165 C180.97 1167.84 175.46 1170.89 170 1174.5 C164.78 1177.95 159.49 1180.88 153.83 1183.59 C150.13 1185.44 146.65 1187.58 143.16 1189.8 C141.08 1190.96 139.32 1191.55 137 1192 C137 1192.66 137 1193.32 137 1194 C136.26 1194.35 135.52 1194.7 134.76 1195.07 C128.29 1198.22 122.24 1201.64 116.28 1205.68 C114 1207 114 1207 111 1207 C111 1207.66 111 1208.32 111 1209 C110.23 1209.38 109.45 1209.75 108.66 1210.14 C103.39 1212.72 98.25 1215.33 93.32 1218.52 C85.93 1223.23 78.35 1227.7 70.75 1232.06 C70.08 1232.45 69.42 1232.83 68.73 1233.22 C67 1234 67 1234 64 1234 C64 1234.66 64 1235.32 64 1236 C62.35 1236.33 60.7 1236.66 59 1237 C59 1237.66 59 1238.32 59 1239 C57.86 1239.55 57.86 1239.55 56.69 1240.1 C51 1242.87 45.67 1245.76 40.48 1249.36 C35.17 1252.87 29.54 1255.89 24 1259 C22.62 1259.8 22.62 1259.8 21.21 1260.62 C20.42 1261.08 19.63 1261.53 18.81 1262 C18.14 1262.39 17.46 1262.78 16.77 1263.19 C15 1264 15 1264 12 1264 C12 1264.66 12 1265.32 12 1266 C10.35 1266.33 8.7 1266.66 7 1267 C7 1267.66 7 1268.32 7 1269 C2.07 1271.46 -2.44 1273.33 -8 1272 C-11.06 1270.49 -13.92 1268.77 -16.81 1266.96 C-21.7 1263.96 -26.84 1261.5 -32 1259 C-32 1258.34 -32 1257.68 -32 1257 C-33.65 1256.67 -35.3 1256.34 -37 1256 C-37 1255.34 -37 1254.68 -37 1254 C-37.56 1253.89 -38.12 1253.78 -38.7 1253.66 C-41.35 1252.9 -43.47 1251.78 -45.88 1250.44 C-46.85 1249.9 -47.82 1249.35 -48.82 1248.8 C-50.39 1247.91 -50.39 1247.91 -52 1247 C-53.09 1246.39 -54.18 1245.77 -55.3 1245.14 C-62.14 1241.27 -68.89 1237.28 -75.61 1233.21 C-79.16 1231.08 -82.73 1229.02 -86.38 1227.06 C-95.42 1222.2 -104.24 1216.91 -113 1211.57 C-118.6 1208.16 -124.15 1204.85 -130.06 1202 C-135.25 1199.49 -139.96 1196.51 -144.76 1193.34 C-150.28 1189.72 -156.02 1186.79 -162 1184 C-162 1183.34 -162 1182.68 -162 1182 C-162.85 1181.84 -162.85 1181.84 -163.71 1181.67 C-166.33 1180.9 -168.25 1179.76 -170.56 1178.31 C-174.06 1176.16 -177.57 1174.12 -181.19 1172.19 C-185.7 1169.76 -190.07 1167.16 -194.44 1164.5 C-200.8 1160.63 -207.27 1157.2 -214 1154 C-214 1153.34 -214 1152.68 -214 1152 C-214.85 1151.84 -214.85 1151.84 -215.71 1151.67 C-218.33 1150.9 -220.25 1149.76 -222.56 1148.31 C-226.06 1146.16 -229.57 1144.12 -233.19 1142.19 C-237.71 1139.75 -242.11 1137.16 -246.5 1134.5 C-250.79 1131.9 -255.08 1129.37 -259.5 1127 C-264.59 1124.27 -269.52 1121.31 -274.45 1118.32 C-278.09 1116.12 -281.75 1114.01 -285.5 1112 C-290.59 1109.27 -295.52 1106.31 -300.45 1103.32 C-304.09 1101.12 -307.75 1099.01 -311.5 1097 C-316.59 1094.27 -321.52 1091.31 -326.45 1088.32 C-330.09 1086.12 -333.75 1084.01 -337.5 1082 C-342.59 1079.27 -347.52 1076.31 -352.45 1073.32 C-356.93 1070.61 -361.48 1068.08 -366.09 1065.61 C-370.46 1063.19 -374.71 1060.59 -378.96 1057.98 C-381.63 1056.36 -384.03 1054.99 -387 1054 C-387 1053.34 -387 1052.68 -387 1052 C-387.73 1051.89 -388.47 1051.78 -389.22 1051.66 C-392.11 1050.97 -393.94 1050.03 -396.44 1048.44 C-400.58 1045.87 -404.76 1043.4 -409 1041 C-415.55 1037.28 -422.02 1033.43 -428.45 1029.51 C-432.65 1026.96 -436.86 1024.51 -441.19 1022.19 C-446.43 1019.36 -451.52 1016.33 -456.61 1013.25 C-462.11 1009.91 -467.67 1006.71 -473.31 1003.62 C-476.54 1001.84 -479.72 999.98 -482.88 998.06 C-486.27 996.01 -489.69 994.06 -493.19 992.19 C-498.56 989.3 -503.77 986.17 -508.96 982.98 C-511.62 981.36 -514.03 979.99 -517 979 C-517 978.34 -517 977.68 -517 977 C-518.65 976.67 -520.3 976.34 -522 976 C-522 975.34 -522 974.68 -522 974 C-522.56 973.89 -523.12 973.78 -523.7 973.66 C-528.47 972.29 -532.69 969.42 -537 967 C-538.27 966.31 -539.53 965.62 -540.8 964.93 C-542.07 964.22 -543.35 963.52 -544.62 962.81 C-545.24 962.48 -545.86 962.15 -546.49 961.8 C-550.89 959.34 -550.89 959.34 -552 956 C-552.66 956 -553.32 956 -554 956 C-557.48 950.48 -557.42 945.78 -557.38 939.47 C-557.38 938.41 -557.39 937.34 -557.39 936.24 C-557.4 932.65 -557.39 929.07 -557.38 925.48 C-557.38 922.89 -557.39 920.29 -557.4 917.7 C-557.41 912.06 -557.41 906.42 -557.4 900.77 C-557.39 892.38 -557.39 883.99 -557.4 875.6 C-557.42 860.61 -557.42 845.63 -557.41 830.64 C-557.4 817.52 -557.4 804.41 -557.4 791.29 C-557.4 790.42 -557.4 789.56 -557.4 788.66 C-557.4 785.13 -557.4 781.6 -557.41 778.07 C-557.41 744.96 -557.41 711.84 -557.39 678.73 C-557.38 649.3 -557.38 619.87 -557.39 590.43 C-557.41 557.38 -557.41 524.33 -557.4 491.27 C-557.4 487.75 -557.4 484.23 -557.4 480.71 C-557.4 479.84 -557.4 478.97 -557.4 478.08 C-557.4 464.97 -557.4 451.86 -557.41 438.75 C-557.42 423.85 -557.42 408.95 -557.4 394.05 C-557.39 385.71 -557.39 377.36 -557.4 369.02 C-557.41 362.8 -557.4 356.57 -557.39 350.35 C-557.38 347.83 -557.38 345.31 -557.39 342.78 C-557.4 339.36 -557.39 335.95 -557.38 332.53 C-557.38 331.54 -557.39 330.55 -557.4 329.53 C-557.36 324.24 -556.9 320.61 -554 316 C-553.34 316 -552.68 316 -552 316 C-551.67 315.01 -551.34 314.02 -551 313 C-549.12 311.65 -549.12 311.65 -546.66 310.29 C-545.76 309.79 -544.86 309.28 -543.94 308.76 C-542.99 308.24 -542.04 307.72 -541.06 307.19 C-539.22 306.16 -537.38 305.13 -535.54 304.11 C-534.62 303.6 -533.71 303.09 -532.77 302.57 C-529.14 300.51 -525.61 298.32 -522.09 296.09 C-520 295 -520 295 -517 295 C-517 294.34 -517 293.68 -517 293 C-515.84 292.44 -515.84 292.44 -514.66 291.86 C-509.39 289.27 -504.24 286.66 -499.31 283.48 C-491.03 278.19 -482.54 273.23 -473.88 268.59 C-470.36 266.65 -466.93 264.58 -463.5 262.5 C-458.36 259.39 -453.17 256.43 -447.88 253.59 C-444.36 251.65 -440.93 249.58 -437.5 247.5 C-433.25 244.93 -429 242.41 -424.62 240.06 C-419.87 237.51 -415.21 234.81 -410.56 232.06 C-409.84 231.63 -409.11 231.21 -408.36 230.76 C-405.01 228.79 -401.67 226.81 -398.35 224.8 C-397.28 224.17 -396.22 223.53 -395.12 222.88 C-394.2 222.32 -393.27 221.76 -392.32 221.18 C-390 220 -390 220 -387 220 C-387 219.34 -387 218.68 -387 218 C-385.84 217.44 -385.84 217.44 -384.66 216.86 C-379.39 214.27 -374.24 211.66 -369.31 208.48 C-361.03 203.19 -352.54 198.23 -343.88 193.59 C-340.36 191.65 -336.93 189.58 -333.5 187.5 C-328.36 184.39 -323.17 181.43 -317.88 178.59 C-314.36 176.65 -310.93 174.58 -307.5 172.5 C-303.25 169.93 -299 167.41 -294.62 165.06 C-289.87 162.51 -285.21 159.81 -280.56 157.06 C-279.84 156.63 -279.11 156.21 -278.36 155.76 C-275.01 153.79 -271.67 151.81 -268.35 149.8 C-267.28 149.17 -266.22 148.53 -265.12 147.88 C-263.74 147.04 -263.74 147.04 -262.32 146.18 C-260 145 -260 145 -257 145 C-257 144.34 -257 143.68 -257 143 C-255.84 142.44 -255.84 142.44 -254.66 141.86 C-249.39 139.27 -244.24 136.66 -239.31 133.48 C-231.03 128.19 -222.54 123.23 -213.88 118.59 C-210.36 116.65 -206.93 114.58 -203.5 112.5 C-198.36 109.39 -193.17 106.43 -187.88 103.59 C-184.36 101.65 -180.93 99.58 -177.5 97.5 C-173.25 94.93 -169 92.41 -164.62 90.06 C-159.87 87.51 -155.21 84.81 -150.56 82.06 C-149.84 81.63 -149.11 81.21 -148.36 80.76 C-145.01 78.79 -141.67 76.81 -138.35 74.8 C-137.28 74.17 -136.22 73.53 -135.12 72.88 C-133.74 72.04 -133.74 72.04 -132.32 71.18 C-130 70 -130 70 -127 70 C-127 69.34 -127 68.68 -127 68 C-126.23 67.62 -125.45 67.25 -124.66 66.86 C-119.39 64.27 -114.24 61.66 -109.31 58.48 C-101.03 53.19 -92.54 48.23 -83.88 43.59 C-80.36 41.65 -76.93 39.58 -73.5 37.5 C-68.36 34.39 -63.17 31.43 -57.88 28.59 C-54.36 26.65 -50.93 24.58 -47.5 22.5 C-42.37 19.39 -37.19 16.44 -31.89 13.61 C-27.65 11.25 -23.51 8.72 -19.39 6.16 C-13.27 2.42 -7.38 -1.11 0 0 Z M-6 34 C-6 34.66 -6 35.32 -6 36 C-7.65 36.33 -9.3 36.66 -11 37 C-11 37.66 -11 38.32 -11 39 C-11.58 39.12 -12.16 39.24 -12.75 39.37 C-19.09 41.14 -24.8 45.48 -30.31 48.94 C-35.54 52.19 -40.86 55 -46.4 57.68 C-49.47 59.24 -52.18 61.05 -55 63 C-55.99 63.33 -56.98 63.66 -58 64 C-58 64.66 -58 65.32 -58 66 C-59.65 66.33 -61.3 66.66 -63 67 C-63 67.66 -63 68.32 -63 69 C-63.58 69.12 -64.16 69.24 -64.75 69.37 C-71.09 71.14 -76.8 75.48 -82.31 78.94 C-87.52 82.18 -92.81 85.02 -98.34 87.68 C-101 89 -103.54 90.34 -106 92 C-106 92.66 -106 93.32 -106 94 C-106.58 94.12 -107.16 94.24 -107.75 94.37 C-110.07 95.02 -111.88 95.9 -113.98 97.07 C-114.72 97.49 -115.47 97.91 -116.24 98.34 C-117.03 98.78 -117.82 99.23 -118.62 99.69 C-119.44 100.14 -120.25 100.6 -121.08 101.07 C-125.98 103.83 -130.85 106.65 -135.65 109.57 C-142.08 113.48 -148.57 117.25 -155.19 120.81 C-160.88 123.88 -166.44 127.17 -171.99 130.49 C-175.92 132.82 -179.87 135.01 -184 137 C-184 137.66 -184 138.32 -184 139 C-184.58 139.12 -185.16 139.25 -185.76 139.37 C-188.04 140.01 -189.81 140.85 -191.87 142 C-192.6 142.41 -193.34 142.82 -194.09 143.24 C-195.25 143.89 -195.25 143.89 -196.44 144.56 C-197.24 145.01 -198.04 145.46 -198.87 145.92 C-204.66 149.19 -210.31 152.64 -215.94 156.17 C-220.81 159.08 -225.88 161.56 -231 164 C-231 164.66 -231 165.32 -231 166 C-232.65 166.33 -234.3 166.66 -236 167 C-236 167.66 -236 168.32 -236 169 C-236.58 169.12 -237.16 169.24 -237.75 169.37 C-240.07 170.02 -241.88 170.9 -243.98 172.07 C-244.72 172.49 -245.47 172.91 -246.24 173.34 C-247.03 173.78 -247.82 174.23 -248.62 174.69 C-249.44 175.14 -250.25 175.6 -251.08 176.07 C-255.97 178.82 -260.82 181.63 -265.62 184.55 C-268.55 186.33 -271.49 188.08 -274.44 189.81 C-275.43 190.4 -276.41 190.98 -277.43 191.58 C-280 193 -280 193 -283 194 C-283 194.66 -283 195.32 -283 196 C-284.65 196.33 -286.3 196.66 -288 197 C-288 197.66 -288 198.32 -288 199 C-288.58 199.12 -289.17 199.25 -289.77 199.38 C-292 200 -293.68 200.81 -295.68 201.96 C-296.36 202.35 -297.04 202.74 -297.75 203.14 C-298.8 203.75 -298.8 203.75 -299.88 204.38 C-304.53 207.05 -309.17 209.65 -314 212 C-314 212.66 -314 213.32 -314 214 C-314.87 214.18 -314.87 214.18 -315.75 214.37 C-322.09 216.14 -327.8 220.48 -333.31 223.94 C-338.48 227.14 -343.72 229.96 -349.19 232.61 C-353.21 234.6 -357.11 236.78 -361 239 C-361 239.66 -361 240.32 -361 241 C-362.65 241.33 -364.3 241.66 -366 242 C-366 242.66 -366 243.32 -366 244 C-366.87 244.18 -366.87 244.18 -367.75 244.37 C-374.09 246.14 -379.8 250.48 -385.31 253.94 C-390.54 257.19 -395.86 260 -401.4 262.68 C-404.47 264.24 -407.18 266.05 -410 268 C-410.99 268.33 -411.98 268.66 -413 269 C-413 269.66 -413 270.32 -413 271 C-414.65 271.33 -416.3 271.66 -418 272 C-418 272.66 -418 273.32 -418 274 C-418.87 274.18 -418.87 274.18 -419.75 274.37 C-426.09 276.14 -431.8 280.48 -437.31 283.94 C-441.54 286.57 -445.77 288.95 -450.25 291.12 C-454.62 293.25 -458.55 295.61 -462.54 298.37 C-471.56 304.35 -481.27 309.29 -491 314 C-491 314.66 -491 315.32 -491 316 C-491.71 316.27 -492.41 316.55 -493.14 316.83 C-500.71 319.93 -507.91 323.65 -514.57 328.41 C-516.89 329.93 -519.23 331.26 -521.65 332.6 C-522.47 333.05 -523.28 333.5 -524.12 333.96 C-525.05 334.48 -525.05 334.48 -526 335 C-526.31 392.24 -526.59 449.47 -526.76 506.71 C-526.76 507.56 -526.77 508.41 -526.77 509.28 C-526.82 527.69 -526.87 546.1 -526.92 564.51 C-526.94 573.54 -526.96 582.57 -526.99 591.6 C-526.99 592.5 -526.99 593.39 -527 594.32 C-527.07 623.44 -527.21 652.56 -527.37 681.68 C-527.54 711.61 -527.65 741.54 -527.69 771.46 C-527.7 775.69 -527.7 779.92 -527.71 784.14 C-527.71 784.97 -527.71 785.81 -527.71 786.66 C-527.73 800.06 -527.82 813.45 -527.92 826.84 C-528.03 840.3 -528.07 853.76 -528.04 867.23 C-528.03 875.23 -528.07 883.22 -528.17 891.22 C-528.25 897.2 -528.23 903.17 -528.18 909.14 C-528.17 911.56 -528.19 913.97 -528.25 916.39 C-528.93 928.42 -528.93 928.42 -524.28 939 C-520.06 942.5 -515.41 944.83 -510.38 946.95 C-507.09 948.4 -504.03 950.22 -500.93 952.06 C-498.91 953.22 -498.91 953.22 -496 953 C-496 953.66 -496 954.32 -496 955 C-495.34 955.36 -494.67 955.72 -493.99 956.09 C-487.21 959.78 -480.47 963.52 -473.75 967.31 C-472.76 967.87 -471.76 968.43 -470.74 969.01 C-464.22 972.7 -457.76 976.47 -451.43 980.46 C-448.7 982.15 -447.28 983 -444 983 C-444 983.66 -444 984.32 -444 985 C-442.48 985.71 -442.48 985.71 -440.94 986.44 C-435.83 988.96 -431.02 991.97 -426.19 995 C-422.39 997.4 -422.39 997.4 -418 998 C-418 998.66 -418 999.32 -418 1000 C-417.35 1000.35 -416.69 1000.7 -416.02 1001.07 C-409.93 1004.36 -403.93 1007.78 -397.96 1011.29 C-395.23 1012.87 -392.47 1014.38 -389.69 1015.88 C-386.43 1017.63 -383.24 1019.45 -380.08 1021.38 C-379.41 1021.79 -378.73 1022.2 -378.03 1022.63 C-376.7 1023.45 -375.37 1024.27 -374.04 1025.1 C-370.3 1027.44 -370.3 1027.44 -366 1028 C-366 1028.66 -366 1029.32 -366 1030 C-364.35 1030.33 -362.7 1030.66 -361 1031 C-361 1031.66 -361 1032.32 -361 1033 C-360.27 1033.35 -359.54 1033.7 -358.79 1034.06 C-351.37 1037.69 -344.32 1041.7 -337.31 1046.06 C-329.2 1051.09 -329.2 1051.09 -320.98 1055.93 C-320.28 1056.34 -319.58 1056.74 -318.86 1057.15 C-316.89 1058.21 -316.89 1058.21 -314 1058 C-314 1058.66 -314 1059.32 -314 1060 C-312.85 1060.56 -311.69 1061.13 -310.5 1061.71 C-306.2 1063.86 -302.07 1066.23 -297.94 1068.69 C-297.21 1069.12 -296.47 1069.55 -295.72 1070 C-292.13 1072.12 -288.55 1074.27 -284.98 1076.44 C-279.39 1079.85 -273.85 1083.15 -267.94 1086 C-262.69 1088.54 -257.89 1091.54 -253.02 1094.73 C-245.1 1100.53 -245.1 1100.53 -236 1103 C-236 1103.66 -236 1104.32 -236 1105 C-235.34 1105.36 -234.67 1105.72 -233.99 1106.09 C-227.21 1109.78 -220.47 1113.52 -213.75 1117.31 C-212.76 1117.87 -211.76 1118.43 -210.74 1119.01 C-204.22 1122.7 -197.76 1126.47 -191.43 1130.46 C-188.7 1132.15 -187.28 1133 -184 1133 C-184 1133.66 -184 1134.32 -184 1135 C-182.85 1135.56 -181.69 1136.13 -180.5 1136.71 C-176.2 1138.86 -172.07 1141.23 -167.94 1143.69 C-167.21 1144.12 -166.47 1144.55 -165.72 1145 C-162.13 1147.12 -158.55 1149.27 -154.98 1151.44 C-149.39 1154.85 -143.85 1158.15 -137.94 1161 C-132.69 1163.54 -127.89 1166.54 -123.02 1169.73 C-115.1 1175.53 -115.1 1175.53 -106 1178 C-106 1178.66 -106 1179.32 -106 1180 C-105.37 1180.34 -104.74 1180.68 -104.09 1181.03 C-93.65 1186.69 -83.35 1192.56 -73.19 1198.69 C-66.99 1202.42 -66.99 1202.42 -60.75 1206.06 C-59.75 1206.64 -59.75 1206.64 -58.73 1207.22 C-56.86 1208.2 -56.86 1208.2 -54 1208 C-54 1208.66 -54 1209.32 -54 1210 C-52.85 1210.56 -51.69 1211.13 -50.5 1211.71 C-46.2 1213.86 -42.07 1216.23 -37.94 1218.69 C-37.21 1219.12 -36.48 1219.55 -35.73 1219.99 C-32.07 1222.16 -28.42 1224.35 -24.77 1226.55 C-24.11 1226.95 -23.44 1227.35 -22.75 1227.77 C-21.5 1228.52 -20.25 1229.28 -19 1230.04 C-12.88 1234.19 -12.88 1234.19 -6 1236 C-6 1236.66 -6 1237.32 -6 1238 C-2.66 1237.44 0.03 1236.65 3 1235 C3 1234.34 3 1233.68 3 1233 C3.58 1232.88 4.16 1232.76 4.75 1232.63 C7.07 1231.98 8.88 1231.1 10.98 1229.93 C11.72 1229.51 12.47 1229.09 13.24 1228.66 C14.03 1228.22 14.82 1227.77 15.62 1227.31 C16.44 1226.86 17.25 1226.4 18.08 1225.93 C22.98 1223.18 27.84 1220.36 32.64 1217.43 C38.57 1213.83 44.59 1210.36 50.62 1206.94 C53.36 1205.37 56.06 1203.76 58.75 1202.12 C62.19 1200.05 65.65 1198.08 69.19 1196.19 C73.71 1193.75 78.11 1191.16 82.5 1188.5 C87.64 1185.39 92.83 1182.43 98.13 1179.59 C101.62 1177.65 105.03 1175.58 108.44 1173.5 C114.8 1169.63 121.27 1166.2 128 1163 C128 1162.34 128 1161.68 128 1161 C129.65 1160.67 131.3 1160.34 133 1160 C133 1159.34 133 1158.68 133 1158 C133.58 1157.88 134.16 1157.76 134.75 1157.63 C137.07 1156.98 138.88 1156.1 140.98 1154.93 C141.72 1154.51 142.47 1154.09 143.24 1153.66 C144.03 1153.22 144.82 1152.77 145.62 1152.31 C146.44 1151.86 147.25 1151.4 148.08 1150.93 C152.98 1148.18 157.84 1145.36 162.64 1142.43 C168.57 1138.83 174.59 1135.36 180.62 1131.94 C183.36 1130.37 186.06 1128.76 188.75 1127.12 C192.19 1125.05 195.65 1123.08 199.19 1121.19 C203.71 1118.75 208.11 1116.16 212.5 1113.5 C217.6 1110.41 222.73 1107.48 227.99 1104.66 C231.9 1102.5 235.72 1100.22 239.56 1097.94 C245.59 1094.36 251.64 1090.97 258 1088 C258 1087.34 258 1086.68 258 1086 C259.65 1085.67 261.3 1085.34 263 1085 C263 1084.34 263 1083.68 263 1083 C263.58 1082.88 264.16 1082.76 264.75 1082.63 C271.09 1080.86 276.8 1076.52 282.31 1073.06 C287.55 1069.81 292.87 1066.99 298.41 1064.3 C301.46 1062.77 304.21 1060.95 307 1059 C308.67 1058.03 310.35 1057.07 312.03 1056.12 C314.3 1054.83 316.52 1053.48 318.75 1052.12 C322.19 1050.05 325.65 1048.08 329.19 1046.19 C333.71 1043.75 338.11 1041.16 342.5 1038.5 C346.75 1035.93 351 1033.41 355.38 1031.06 C360.13 1028.51 364.79 1025.81 369.44 1023.06 C370.16 1022.63 370.89 1022.2 371.64 1021.76 C374.39 1020.14 377.14 1018.51 379.89 1016.88 C381.55 1015.9 383.21 1014.92 384.88 1013.94 C386.26 1013.12 386.26 1013.12 387.68 1012.28 C390 1011 390 1011 393 1010 C393 1009.34 393 1008.68 393 1008 C393.87 1007.82 393.87 1007.82 394.75 1007.63 C401.09 1005.86 406.8 1001.52 412.31 998.06 C416.54 995.43 420.77 993.05 425.25 990.88 C429.62 988.75 433.55 986.39 437.53 983.63 C444.54 979 452.04 975.04 459.44 971.06 C464.54 968.3 469.5 965.32 474.46 962.31 C478.05 960.14 481.67 958.05 485.38 956.06 C492.25 952.37 499 948.44 505.65 944.36 C508 943 508 943 510.56 941.79 C515.71 939.31 515.71 939.31 518.93 934.83 C519.29 932.14 519.33 929.6 519.27 926.88 C519.28 925.86 519.3 924.84 519.31 923.79 C519.35 920.35 519.32 916.92 519.29 913.48 C519.3 911 519.32 908.51 519.34 906.03 C519.38 900.62 519.39 895.22 519.37 889.81 C519.34 881.77 519.36 873.73 519.4 865.7 C519.46 851.34 519.47 836.98 519.45 822.62 C519.44 810.06 519.44 797.49 519.45 784.93 C519.46 783.24 519.46 781.56 519.46 779.88 C519.47 777.34 519.47 774.8 519.47 772.26 C519.51 748.66 519.52 725.05 519.49 701.45 C519.49 700.11 519.49 700.11 519.49 698.75 C519.48 691.52 519.47 684.29 519.47 677.07 C519.43 648.87 519.46 620.67 519.53 592.48 C519.61 560.81 519.65 529.14 519.63 497.47 C519.63 494.09 519.63 490.71 519.62 487.34 C519.62 486.51 519.62 485.68 519.62 484.82 C519.61 472.26 519.64 459.71 519.68 447.15 C519.73 432.87 519.73 418.59 519.67 404.32 C519.64 396.32 519.64 388.33 519.7 380.34 C519.74 374.38 519.71 368.41 519.65 362.45 C519.64 360.03 519.65 357.62 519.68 355.2 C520.38 343.74 520.38 343.74 516.75 333.29 C513.29 330.13 509.37 328.61 505 327 C502.94 325.9 500.9 324.78 498.88 323.62 C498.01 323.16 497.14 322.7 496.24 322.23 C494 321 494 321 491 319 C490.01 319 489.02 319 488 319 C488 318.34 488 317.68 488 317 C486.35 316.67 484.7 316.34 483 316 C483 315.34 483 314.68 483 314 C482.24 313.64 481.48 313.27 480.69 312.9 C474.93 310.09 469.54 307.14 464.27 303.5 C460.93 301.29 457.41 299.45 453.89 297.57 C450.89 295.94 447.94 294.23 445 292.5 C441.3 290.33 437.59 288.22 433.81 286.19 C424.72 281.27 415.83 275.95 407 270.57 C401.4 267.16 395.85 263.85 389.94 261 C384.72 258.48 379.97 255.49 375.14 252.32 C370.84 249.5 366.45 247 361.91 244.59 C358.38 242.66 354.94 240.59 351.5 238.5 C347.21 235.9 342.92 233.37 338.5 231 C333.41 228.27 328.48 225.31 323.55 222.32 C319.91 220.12 316.25 218.01 312.5 216 C307.41 213.27 302.48 210.31 297.55 207.32 C293.07 204.61 288.52 202.08 283.91 199.62 C281.6 198.33 279.35 197.01 277.09 195.63 C276.42 195.22 275.74 194.81 275.04 194.38 C273.7 193.56 272.37 192.73 271.04 191.89 C267.3 189.56 267.3 189.56 263 189 C263 188.34 263 187.68 263 187 C261.99 186.53 260.98 186.05 259.94 185.56 C255.03 183.12 250.39 180.26 245.7 177.42 C242.01 175.19 238.3 173.04 234.5 171 C229.41 168.27 224.48 165.31 219.55 162.32 C215.91 160.12 212.25 158.01 208.5 156 C203.36 153.25 198.37 150.27 193.39 147.25 C187.89 143.91 182.33 140.71 176.69 137.62 C173.46 135.84 170.28 133.98 167.12 132.06 C163.73 130.01 160.31 128.06 156.81 126.19 C153.51 124.42 150.27 122.58 147.07 120.62 C146.4 120.21 145.73 119.8 145.03 119.37 C143.7 118.55 142.37 117.73 141.04 116.9 C137.3 114.56 137.3 114.56 133 114 C133 113.34 133 112.68 133 112 C130.53 111.5 130.53 111.5 128 111 C128 110.34 128 109.68 128 109 C126.33 108.2 126.33 108.2 124.62 107.38 C120.49 105.31 116.57 102.96 112.62 100.56 C110.05 99.03 107.45 97.6 104.81 96.19 C100.29 93.75 95.89 91.16 91.5 88.5 C87.25 85.93 83 83.41 78.62 81.06 C69.58 76.2 60.76 70.91 52 65.57 C46.4 62.16 40.85 58.85 34.94 56 C29.73 53.48 24.98 50.5 20.16 47.33 C15.68 44.39 11.08 41.78 6.34 39.29 C4.3 38.17 2.45 36.97 0.56 35.62 C-2.06 33.64 -2.06 33.64 -6 34 Z " fill="#1fcf36" transform="translate(644,4)"/>
</svg>
